solid OpenSCAD_Model
  facet normal 0.980785 0.195093 0
    outer loop
      vertex 2.3 0 2
      vertex 2.12492 0.880172 0
      vertex 2.12492 0.880172 2
    endloop
  endfacet
  facet normal 0.980785 0.195093 0
    outer loop
      vertex 2.12492 0.880172 0
      vertex 2.3 0 2
      vertex 2.3 0 0
    endloop
  endfacet
  facet normal -0.195093 0.980785 0
    outer loop
      vertex 0 2.3 0
      vertex -0.880172 2.12492 2
      vertex 0 2.3 2
    endloop
  endfacet
  facet normal -0.195093 0.980785 0
    outer loop
      vertex -0.880172 2.12492 2
      vertex 0 2.3 0
      vertex -0.880172 2.12492 0
    endloop
  endfacet
  facet normal 0 0 1
    outer loop
      vertex -5.87508 14.1198 2
      vertex -6.61418 14.426 2
      vertex -6.37365 13.3737 2
    endloop
  endfacet
  facet normal -0 0 1
    outer loop
      vertex -6.93934 13.9393 2
      vertex -6.37365 13.3737 2
      vertex -6.61418 14.426 2
    endloop
  endfacet
  facet normal 0 0 1
    outer loop
      vertex -6.93934 13.9393 2
      vertex -7.11983 12.8751 2
      vertex -6.37365 13.3737 2
    endloop
  endfacet
  facet normal -0 0 1
    outer loop
      vertex -7.42597 13.6142 2
      vertex -7.11983 12.8751 2
      vertex -6.93934 13.9393 2
    endloop
  endfacet
  facet normal 0 0 1
    outer loop
      vertex -7.42597 13.6142 2
      vertex -7.58067 12.7834 2
      vertex -7.11983 12.8751 2
    endloop
  endfacet
  facet normal -0 0 1
    outer loop
      vertex -8 13.5 2
      vertex -7.58067 12.7834 2
      vertex -7.42597 13.6142 2
    endloop
  endfacet
  facet normal 0 0 1
    outer loop
      vertex -8.57402 13.6142 2
      vertex -7.58067 12.7834 2
      vertex -8 13.5 2
    endloop
  endfacet
  facet normal 0 0 1
    outer loop
      vertex -9.5 9.58453 2
      vertex -8.57402 13.6142 2
      vertex -9.06066 13.9393 2
    endloop
  endfacet
  facet normal 0 0 1
    outer loop
      vertex -8.57402 13.6142 2
      vertex -9.5 9.58453 2
      vertex -7.58067 12.7834 2
    endloop
  endfacet
  facet normal -0 0 1
    outer loop
      vertex -10.1629 14.3107 2
      vertex -9.06066 13.9393 2
      vertex -9.38582 14.426 2
    endloop
  endfacet
  facet normal 0 0 1
    outer loop
      vertex -10.1629 14.3107 2
      vertex -9.38582 14.426 2
      vertex -9.5 15 2
    endloop
  endfacet
  facet normal 0 0 1
    outer loop
      vertex -6.5 15 2
      vertex -5.7 15 2
      vertex -5.87508 15.8802 2
    endloop
  endfacet
  facet normal 0 0 1
    outer loop
      vertex -6.61418 15.574 2
      vertex -5.87508 15.8802 2
      vertex -5.97348 16.0274 2
    endloop
  endfacet
  facet normal -0 0 1
    outer loop
      vertex -7.3927 20.5571 2
      vertex -4.98445 18.5 2
      vertex -6 21.4965 2
    endloop
  endfacet
  facet normal 0 0 1
    outer loop
      vertex -6.59087 21.3787 2
      vertex -6 21.4965 2
      vertex -6.01828 21.4999 2
    endloop
  endfacet
  facet normal 0 0 1
    outer loop
      vertex -5.7 15 2
      vertex -6.5 15 2
      vertex -5.87508 14.1198 2
    endloop
  endfacet
  facet normal 0 0 1
    outer loop
      vertex -7.42597 16.3858 2
      vertex -4.98445 18.5 2
      vertex -7.3927 20.5571 2
    endloop
  endfacet
  facet normal -0 0 1
    outer loop
      vertex -6.61418 14.426 2
      vertex -5.87508 14.1198 2
      vertex -6.5 15 2
    endloop
  endfacet
  facet normal 0 0 1
    outer loop
      vertex -6 21.4965 2
      vertex -6.59087 21.3787 2
      vertex -7.3927 20.5571 2
    endloop
  endfacet
  facet normal 0 0 1
    outer loop
      vertex -5.87508 15.8802 2
      vertex -6.61418 15.574 2
      vertex -6.5 15 2
    endloop
  endfacet
  facet normal 0 0 1
    outer loop
      vertex -5.97348 16.0274 2
      vertex -6.93934 16.0607 2
      vertex -6.61418 15.574 2
    endloop
  endfacet
  facet normal 0 0 1
    outer loop
      vertex -7.3927 20.5571 2
      vertex -6.59087 21.3787 2
      vertex -7.0735 21.0476 2
    endloop
  endfacet
  facet normal 0 0 1
    outer loop
      vertex -4.98445 18.5 2
      vertex -7.42597 16.3858 2
      vertex -5.97348 16.0274 2
    endloop
  endfacet
  facet normal 0 0 1
    outer loop
      vertex -8.75567 17.1497 2
      vertex -7.3927 20.5571 2
      vertex -7.39273 20.5571 2
    endloop
  endfacet
  facet normal 0 0 1
    outer loop
      vertex -5.97348 16.0274 2
      vertex -7.42597 16.3858 2
      vertex -6.93934 16.0607 2
    endloop
  endfacet
  facet normal 0 0 1
    outer loop
      vertex -7.3927 20.5571 2
      vertex -8.75567 17.1497 2
      vertex -7.42597 16.3858 2
    endloop
  endfacet
  facet normal 0 0 1
    outer loop
      vertex -7.42597 16.3858 2
      vertex -8.75567 17.1497 2
      vertex -8 16.5 2
    endloop
  endfacet
  facet normal 0 0 1
    outer loop
      vertex -8 16.5 2
      vertex -8.75567 17.1497 2
      vertex -8.57402 16.3858 2
    endloop
  endfacet
  facet normal -0 0 1
    outer loop
      vertex -8.88017 17.1249 2
      vertex -8.57402 16.3858 2
      vertex -8.75567 17.1497 2
    endloop
  endfacet
  facet normal 0 0 1
    outer loop
      vertex -8.88017 17.1249 2
      vertex -9.06066 16.0607 2
      vertex -8.57402 16.3858 2
    endloop
  endfacet
  facet normal -0 0 1
    outer loop
      vertex -9.62634 16.6263 2
      vertex -9.06066 16.0607 2
      vertex -8.88017 17.1249 2
    endloop
  endfacet
  facet normal 0 0 1
    outer loop
      vertex -12.263 10.7578 2
      vertex -9.06066 13.9393 2
      vertex -10.1629 14.3107 2
    endloop
  endfacet
  facet normal 0 0 1
    outer loop
      vertex -9.38582 15.574 2
      vertex -10.1249 15.8802 2
      vertex -9.5 15 2
    endloop
  endfacet
  facet normal -0 0 1
    outer loop
      vertex -10.1249 15.8802 2
      vertex -9.38582 15.574 2
      vertex -9.62634 16.6263 2
    endloop
  endfacet
  facet normal 0 0 1
    outer loop
      vertex -9.06066 16.0607 2
      vertex -9.62634 16.6263 2
      vertex -9.38582 15.574 2
    endloop
  endfacet
  facet normal 0 0 1
    outer loop
      vertex 1.5 0 2
      vertex 2.3 0 2
      vertex 2.12492 0.880172 2
    endloop
  endfacet
  facet normal 0 0 1
    outer loop
      vertex 1.38582 0.574024 2
      vertex 2.12492 0.880172 2
      vertex 1.62634 1.62634 2
    endloop
  endfacet
  facet normal 0 0 1
    outer loop
      vertex 2.3 0 2
      vertex 1.5 0 2
      vertex 2.12492 -0.880172 2
    endloop
  endfacet
  facet normal -0 0 1
    outer loop
      vertex 1.38582 -0.574024 2
      vertex 2.12492 -0.880172 2
      vertex 1.5 0 2
    endloop
  endfacet
  facet normal 0 0 1
    outer loop
      vertex 2.12492 0.880172 2
      vertex 1.38582 0.574024 2
      vertex 1.5 0 2
    endloop
  endfacet
  facet normal 0 0 1
    outer loop
      vertex 1.62634 1.62634 2
      vertex 1.06066 1.06066 2
      vertex 1.38582 0.574024 2
    endloop
  endfacet
  facet normal 0 0 1
    outer loop
      vertex 0.880172 2.12492 2
      vertex 1.06066 1.06066 2
      vertex 1.62634 1.62634 2
    endloop
  endfacet
  facet normal 0 0 1
    outer loop
      vertex 0.880172 2.12492 2
      vertex 0.574024 1.38582 2
      vertex 1.06066 1.06066 2
    endloop
  endfacet
  facet normal 0 0 1
    outer loop
      vertex 0 2.3 2
      vertex 0.574024 1.38582 2
      vertex 0.880172 2.12492 2
    endloop
  endfacet
  facet normal 0 0 1
    outer loop
      vertex 0 2.3 2
      vertex 0 1.5 2
      vertex 0.574024 1.38582 2
    endloop
  endfacet
  facet normal 0 0 1
    outer loop
      vertex 0 2.3 2
      vertex -0.574024 1.38582 2
      vertex 0 1.5 2
    endloop
  endfacet
  facet normal -0 0 1
    outer loop
      vertex -0.880172 2.12492 2
      vertex -0.574024 1.38582 2
      vertex 0 2.3 2
    endloop
  endfacet
  facet normal -0 0 1
    outer loop
      vertex -1.39818 1.7788 2
      vertex -0.574024 1.38582 2
      vertex -0.880172 2.12492 2
    endloop
  endfacet
  facet normal 0 0 1
    outer loop
      vertex -0.574024 1.38582 2
      vertex -1.39818 1.7788 2
      vertex -1.06066 1.06066 2
    endloop
  endfacet
  facet normal 0 0 1
    outer loop
      vertex -1.06066 1.06066 2
      vertex -1.39818 1.7788 2
      vertex -1.38582 0.574024 2
    endloop
  endfacet
  facet normal 0 0 1
    outer loop
      vertex -1.39818 1.7788 2
      vertex -1.5 0 2
      vertex -1.38582 0.574024 2
    endloop
  endfacet
  facet normal 0 0 1
    outer loop
      vertex -9.5 3.25186 2
      vertex -1.5 0 2
      vertex -1.39818 1.7788 2
    endloop
  endfacet
  facet normal 0 0 1
    outer loop
      vertex -1.5 0 2
      vertex -1.92864 -1.17393 2
      vertex -1.62634 -1.62634 2
    endloop
  endfacet
  facet normal 0 0 1
    outer loop
      vertex -1.5 0 2
      vertex -9.5 3.25186 2
      vertex -1.92864 -1.17393 2
    endloop
  endfacet
  facet normal 0 0 1
    outer loop
      vertex -10.3 15 2
      vertex -9.5 15 2
      vertex -10.1249 15.8802 2
    endloop
  endfacet
  facet normal 0 0 1
    outer loop
      vertex -9.06066 13.9393 2
      vertex -12.263 10.7578 2
      vertex -9.5 9.58453 2
    endloop
  endfacet
  facet normal 0 0 1
    outer loop
      vertex -9.5 3.25186 2
      vertex -11.2683 0.524185 2
      vertex -1.92864 -1.17393 2
    endloop
  endfacet
  facet normal -0 0 1
    outer loop
      vertex -12.5 10 2
      vertex -9.5 9.58453 2
      vertex -12.263 10.7578 2
    endloop
  endfacet
  facet normal 0 -0 1
    outer loop
      vertex -12.4714 2 2
      vertex -9.5 3.25186 2
      vertex -12.5 10 2
    endloop
  endfacet
  facet normal 0 0 1
    outer loop
      vertex -9.5 3.25186 2
      vertex -12.4714 2 2
      vertex -11.2683 0.524185 2
    endloop
  endfacet
  facet normal 0 0 1
    outer loop
      vertex -9.5 9.58453 2
      vertex -12.5 10 2
      vertex -9.5 3.25186 2
    endloop
  endfacet
  facet normal 0 -0 1
    outer loop
      vertex -12.263 10.7578 2
      vertex -10.1629 14.3107 2
      vertex -12.2862 10.7717 2
    endloop
  endfacet
  facet normal 0 0 1
    outer loop
      vertex 2.12492 -0.880172 2
      vertex 1.38582 -0.574024 2
      vertex 1.62634 -1.62634 2
    endloop
  endfacet
  facet normal -0 0 1
    outer loop
      vertex 1.06066 -1.06066 2
      vertex 1.62634 -1.62634 2
      vertex 1.38582 -0.574024 2
    endloop
  endfacet
  facet normal 0 0 1
    outer loop
      vertex 1.06066 -1.06066 2
      vertex 0.880172 -2.12492 2
      vertex 1.62634 -1.62634 2
    endloop
  endfacet
  facet normal -0 0 1
    outer loop
      vertex 0.574024 -1.38582 2
      vertex 0.880172 -2.12492 2
      vertex 1.06066 -1.06066 2
    endloop
  endfacet
  facet normal -0 0 1
    outer loop
      vertex 0 -1.5 2
      vertex 0.880172 -2.12492 2
      vertex 0.574024 -1.38582 2
    endloop
  endfacet
  facet normal 0 0 1
    outer loop
      vertex 0 -1.5 2
      vertex 0 -2.3 2
      vertex 0.880172 -2.12492 2
    endloop
  endfacet
  facet normal 0 0 1
    outer loop
      vertex -0.574024 -1.38582 2
      vertex 0 -2.3 2
      vertex 0 -1.5 2
    endloop
  endfacet
  facet normal 0 0 1
    outer loop
      vertex -0.574024 -1.38582 2
      vertex -0.880172 -2.12492 2
      vertex 0 -2.3 2
    endloop
  endfacet
  facet normal 0 0 1
    outer loop
      vertex -1.06066 -1.06066 2
      vertex -0.880172 -2.12492 2
      vertex -0.574024 -1.38582 2
    endloop
  endfacet
  facet normal 0 0 1
    outer loop
      vertex -1.62634 -1.62634 2
      vertex -1.06066 -1.06066 2
      vertex -1.38582 -0.574024 2
    endloop
  endfacet
  facet normal 0 0 1
    outer loop
      vertex -1.06066 -1.06066 2
      vertex -1.62634 -1.62634 2
      vertex -0.880172 -2.12492 2
    endloop
  endfacet
  facet normal 0 0 1
    outer loop
      vertex -1.62634 -1.62634 2
      vertex -1.38582 -0.574024 2
      vertex -1.5 0 2
    endloop
  endfacet
  facet normal 0 0 1
    outer loop
      vertex -9.5 15 2
      vertex -10.3 15 2
      vertex -10.1629 14.3107 2
    endloop
  endfacet
  facet normal 0 0 1
    outer loop
      vertex -12.5 10 2
      vertex -12.263 10.7578 2
      vertex -12.3858 10.574 2
    endloop
  endfacet
  facet normal 0 0 1
    outer loop
      vertex -11.2683 0.524185 2
      vertex -12.4714 2 2
      vertex -11.8127 0.739212 2
    endloop
  endfacet
  facet normal 0 0 1
    outer loop
      vertex -12.2333 1.14618 2
      vertex -12.4714 2 2
      vertex -12.4661 1.68314 2
    endloop
  endfacet
  facet normal 0 0 1
    outer loop
      vertex -11.8127 0.739212 2
      vertex -12.4714 2 2
      vertex -12.2333 1.14618 2
    endloop
  endfacet
  facet normal 0 0 1
    outer loop
      vertex -12.4714 2 2
      vertex -12.5 10 2
      vertex -12.5 2 2
    endloop
  endfacet
  facet normal 0 0 1
    outer loop
      vertex 1.5 20 2
      vertex 2.3 20 2
      vertex 2.12492 20.8802 2
    endloop
  endfacet
  facet normal 0 0 1
    outer loop
      vertex 1.38582 20.574 2
      vertex 2.12492 20.8802 2
      vertex 1.62634 21.6263 2
    endloop
  endfacet
  facet normal 0 0 1
    outer loop
      vertex 2.3 20 2
      vertex 1.5 20 2
      vertex 2.12492 19.1198 2
    endloop
  endfacet
  facet normal -0 0 1
    outer loop
      vertex 1.38582 19.426 2
      vertex 2.12492 19.1198 2
      vertex 1.5 20 2
    endloop
  endfacet
  facet normal 0 0 1
    outer loop
      vertex 2.12492 20.8802 2
      vertex 1.38582 20.574 2
      vertex 1.5 20 2
    endloop
  endfacet
  facet normal 0 0 1
    outer loop
      vertex 1.62634 21.6263 2
      vertex 1.06066 21.0607 2
      vertex 1.38582 20.574 2
    endloop
  endfacet
  facet normal 0 0 1
    outer loop
      vertex 0.880172 22.1249 2
      vertex 1.06066 21.0607 2
      vertex 1.62634 21.6263 2
    endloop
  endfacet
  facet normal 0 0 1
    outer loop
      vertex 0.880172 22.1249 2
      vertex 0.574024 21.3858 2
      vertex 1.06066 21.0607 2
    endloop
  endfacet
  facet normal 0 0 1
    outer loop
      vertex 0 22.3 2
      vertex 0.574024 21.3858 2
      vertex 0.880172 22.1249 2
    endloop
  endfacet
  facet normal 0 0 1
    outer loop
      vertex 0 22.3 2
      vertex 0 21.5 2
      vertex 0.574024 21.3858 2
    endloop
  endfacet
  facet normal 0 0 1
    outer loop
      vertex 0 22.3 2
      vertex -0.574024 21.3858 2
      vertex 0 21.5 2
    endloop
  endfacet
  facet normal -0 0 1
    outer loop
      vertex -0.880172 22.1249 2
      vertex -0.574024 21.3858 2
      vertex 0 22.3 2
    endloop
  endfacet
  facet normal 0 0 1
    outer loop
      vertex -0.880172 22.1249 2
      vertex -1.06066 21.0607 2
      vertex -0.574024 21.3858 2
    endloop
  endfacet
  facet normal -0 0 1
    outer loop
      vertex -1.62634 21.6263 2
      vertex -1.06066 21.0607 2
      vertex -0.880172 22.1249 2
    endloop
  endfacet
  facet normal 0 0 1
    outer loop
      vertex -1.06066 21.0607 2
      vertex -1.71077 21.5 2
      vertex -1.38582 20.574 2
    endloop
  endfacet
  facet normal -0 0 1
    outer loop
      vertex -1.71077 21.5 2
      vertex -1.06066 21.0607 2
      vertex -1.62634 21.6263 2
    endloop
  endfacet
  facet normal 0 0 1
    outer loop
      vertex 2.12492 19.1198 2
      vertex 1.38582 19.426 2
      vertex 1.62634 18.3737 2
    endloop
  endfacet
  facet normal -0 0 1
    outer loop
      vertex 1.06066 18.9393 2
      vertex 1.62634 18.3737 2
      vertex 1.38582 19.426 2
    endloop
  endfacet
  facet normal 0 0 1
    outer loop
      vertex 1.06066 18.9393 2
      vertex 0.880172 17.8751 2
      vertex 1.62634 18.3737 2
    endloop
  endfacet
  facet normal -0 0 1
    outer loop
      vertex 0.574024 18.6142 2
      vertex 0.880172 17.8751 2
      vertex 1.06066 18.9393 2
    endloop
  endfacet
  facet normal -0 0 1
    outer loop
      vertex 0 18.5 2
      vertex 0.880172 17.8751 2
      vertex 0.574024 18.6142 2
    endloop
  endfacet
  facet normal 0 0 1
    outer loop
      vertex 0 18.5 2
      vertex 0 17.7 2
      vertex 0.880172 17.8751 2
    endloop
  endfacet
  facet normal 0 0 1
    outer loop
      vertex -0.574024 18.6142 2
      vertex 0 17.7 2
      vertex 0 18.5 2
    endloop
  endfacet
  facet normal 0 0 1
    outer loop
      vertex -0.574024 18.6142 2
      vertex -0.880172 17.8751 2
      vertex 0 17.7 2
    endloop
  endfacet
  facet normal 0 0 1
    outer loop
      vertex -1.06066 18.9393 2
      vertex -0.880172 17.8751 2
      vertex -0.574024 18.6142 2
    endloop
  endfacet
  facet normal 0 0 1
    outer loop
      vertex -1.71077 18.5 2
      vertex -1.06066 18.9393 2
      vertex -1.38582 19.426 2
    endloop
  endfacet
  facet normal 0 0 1
    outer loop
      vertex -1.06066 18.9393 2
      vertex -1.62634 18.3737 2
      vertex -0.880172 17.8751 2
    endloop
  endfacet
  facet normal 0 0 1
    outer loop
      vertex -1.71077 18.5 2
      vertex -1.38582 19.426 2
      vertex -1.5 20 2
    endloop
  endfacet
  facet normal 0 0 1
    outer loop
      vertex -1.38582 20.574 2
      vertex -1.71077 21.5 2
      vertex -1.5 20 2
    endloop
  endfacet
  facet normal 0 0 1
    outer loop
      vertex -4.98445 18.5 2
      vertex -1.5 20 2
      vertex -1.71077 21.5 2
    endloop
  endfacet
  facet normal 0 0 1
    outer loop
      vertex -1.06066 18.9393 2
      vertex -1.71077 18.5 2
      vertex -1.62634 18.3737 2
    endloop
  endfacet
  facet normal 0 0 1
    outer loop
      vertex -1.5 20 2
      vertex -4.98445 18.5 2
      vertex -1.71077 18.5 2
    endloop
  endfacet
  facet normal 0 0 1
    outer loop
      vertex -1.71077 21.5 2
      vertex -6 21.4965 2
      vertex -4.98445 18.5 2
    endloop
  endfacet
  facet normal 0 0 1
    outer loop
      vertex -6 21.4965 2
      vertex -1.71077 21.5 2
      vertex -6 21.5 2
    endloop
  endfacet
  facet normal 0.195093 -0.980785 0
    outer loop
      vertex 0 -2.3 0
      vertex 0.880172 -2.12492 2
      vertex 0 -2.3 2
    endloop
  endfacet
  facet normal 0.195093 -0.980785 0
    outer loop
      vertex 0.880172 -2.12492 2
      vertex 0 -2.3 0
      vertex 0.880172 -2.12492 0
    endloop
  endfacet
  facet normal 0.555575 0.831466 -0
    outer loop
      vertex 1.62634 1.62634 0
      vertex 0.880172 2.12492 2
      vertex 1.62634 1.62634 2
    endloop
  endfacet
  facet normal 0.555575 0.831466 0
    outer loop
      vertex 0.880172 2.12492 2
      vertex 1.62634 1.62634 0
      vertex 0.880172 2.12492 0
    endloop
  endfacet
  facet normal 0.831466 0.555575 0
    outer loop
      vertex 2.12492 0.880172 2
      vertex 1.62634 1.62634 0
      vertex 1.62634 1.62634 2
    endloop
  endfacet
  facet normal 0.831466 0.555575 0
    outer loop
      vertex 1.62634 1.62634 0
      vertex 2.12492 0.880172 2
      vertex 2.12492 0.880172 0
    endloop
  endfacet
  facet normal 0.195093 0.980785 -0
    outer loop
      vertex 0.880172 2.12492 0
      vertex 0 2.3 2
      vertex 0.880172 2.12492 2
    endloop
  endfacet
  facet normal 0.195093 0.980785 0
    outer loop
      vertex 0 2.3 2
      vertex 0.880172 2.12492 0
      vertex 0 2.3 0
    endloop
  endfacet
  facet normal -0.555568 0.831471 0
    outer loop
      vertex -0.880172 2.12492 0
      vertex -1.39818 1.7788 2
      vertex -0.880172 2.12492 2
    endloop
  endfacet
  facet normal -0.555568 0.831471 0
    outer loop
      vertex -1.39818 1.7788 2
      vertex -0.880172 2.12492 0
      vertex -1.39818 1.7788 0
    endloop
  endfacet
  facet normal 0.980785 -0.195093 0
    outer loop
      vertex 2.12492 -0.880172 2
      vertex 2.3 0 0
      vertex 2.3 0 2
    endloop
  endfacet
  facet normal 0.980785 -0.195093 0
    outer loop
      vertex 2.3 0 0
      vertex 2.12492 -0.880172 2
      vertex 2.12492 -0.880172 0
    endloop
  endfacet
  facet normal 0 0 -1
    outer loop
      vertex -9.5 9.58453 0
      vertex -12.3858 10.574 0
      vertex -12.263 10.7578 0
    endloop
  endfacet
  facet normal 0 0 -1
    outer loop
      vertex -12.4714 2 0
      vertex -12.2333 1.14618 0
      vertex -12.4661 1.68314 0
    endloop
  endfacet
  facet normal -0 0 -1
    outer loop
      vertex -9.5 3.25186 0
      vertex -12.4714 2 0
      vertex -12.5 10 0
    endloop
  endfacet
  facet normal 0 0 -1
    outer loop
      vertex -12.5 10 0
      vertex -12.4714 2 0
      vertex -12.5 2 0
    endloop
  endfacet
  facet normal 0 0 -1
    outer loop
      vertex -9.5 3.25186 0
      vertex -12.5 10 0
      vertex -12.3858 10.574 0
    endloop
  endfacet
  facet normal 0 0 -1
    outer loop
      vertex -5.87508 14.1198 0
      vertex -6.61418 14.426 0
      vertex -6.5 15 0
    endloop
  endfacet
  facet normal 0 0 -1
    outer loop
      vertex -6.37365 13.3737 0
      vertex -6.93934 13.9393 0
      vertex -6.61418 14.426 0
    endloop
  endfacet
  facet normal 0 0 -1
    outer loop
      vertex -7.11983 12.8751 0
      vertex -6.93934 13.9393 0
      vertex -6.37365 13.3737 0
    endloop
  endfacet
  facet normal 0 0 -1
    outer loop
      vertex -7.11983 12.8751 0
      vertex -7.42597 13.6142 0
      vertex -6.93934 13.9393 0
    endloop
  endfacet
  facet normal 0 0 -1
    outer loop
      vertex -7.58067 12.7834 0
      vertex -7.42597 13.6142 0
      vertex -7.11983 12.8751 0
    endloop
  endfacet
  facet normal 0 0 -1
    outer loop
      vertex -7.58067 12.7834 0
      vertex -8 13.5 0
      vertex -7.42597 13.6142 0
    endloop
  endfacet
  facet normal 0 0 -1
    outer loop
      vertex -7.58067 12.7834 0
      vertex -8.57402 13.6142 0
      vertex -8 13.5 0
    endloop
  endfacet
  facet normal 0 0 -1
    outer loop
      vertex -9.5 9.58453 0
      vertex -8.57402 13.6142 0
      vertex -7.58067 12.7834 0
    endloop
  endfacet
  facet normal -0 0 -1
    outer loop
      vertex -8.57402 13.6142 0
      vertex -9.5 9.58453 0
      vertex -9.06066 13.9393 0
    endloop
  endfacet
  facet normal 0 0 -1
    outer loop
      vertex -12.263 10.7578 0
      vertex -9.06066 13.9393 0
      vertex -9.5 9.58453 0
    endloop
  endfacet
  facet normal 0 0 -1
    outer loop
      vertex -9.06066 13.9393 0
      vertex -10.1629 14.3107 0
      vertex -9.38582 14.426 0
    endloop
  endfacet
  facet normal 0 0 -1
    outer loop
      vertex -6.5 15 0
      vertex -5.7 15 0
      vertex -5.87508 14.1198 0
    endloop
  endfacet
  facet normal 0 0 -1
    outer loop
      vertex -5.7 15 0
      vertex -6.5 15 0
      vertex -5.87508 15.8802 0
    endloop
  endfacet
  facet normal 0 0 -1
    outer loop
      vertex -4.98445 18.5 0
      vertex -6.01828 21.4999 0
      vertex -6 21.4965 0
    endloop
  endfacet
  facet normal 0 0 -1
    outer loop
      vertex -6.61418 14.426 0
      vertex -5.87508 14.1198 0
      vertex -6.37365 13.3737 0
    endloop
  endfacet
  facet normal 0 0 -1
    outer loop
      vertex -6.61418 15.574 0
      vertex -5.87508 15.8802 0
      vertex -6.5 15 0
    endloop
  endfacet
  facet normal -0 0 -1
    outer loop
      vertex -5.87508 15.8802 0
      vertex -6.61418 15.574 0
      vertex -5.97348 16.0274 0
    endloop
  endfacet
  facet normal 0 0 -1
    outer loop
      vertex -6.93934 16.0607 0
      vertex -5.97348 16.0274 0
      vertex -6.61418 15.574 0
    endloop
  endfacet
  facet normal 0 0 -1
    outer loop
      vertex -7.42597 16.3858 0
      vertex -5.97348 16.0274 0
      vertex -6.93934 16.0607 0
    endloop
  endfacet
  facet normal 0 0 -1
    outer loop
      vertex -4.98445 18.5 0
      vertex -7.3927 20.5571 0
      vertex -6.01828 21.4999 0
    endloop
  endfacet
  facet normal 0 0 -1
    outer loop
      vertex -6.01828 21.4999 0
      vertex -7.3927 20.5571 0
      vertex -6.59087 21.3787 0
    endloop
  endfacet
  facet normal 0 0 -1
    outer loop
      vertex -6.59087 21.3787 0
      vertex -7.3927 20.5571 0
      vertex -7.0735 21.0476 0
    endloop
  endfacet
  facet normal -0 0 -1
    outer loop
      vertex -4.98445 18.5 0
      vertex -7.42597 16.3858 0
      vertex -7.3927 20.5571 0
    endloop
  endfacet
  facet normal 0 0 -1
    outer loop
      vertex -8.75567 17.1497 0
      vertex -7.3927 20.5571 0
      vertex -7.42597 16.3858 0
    endloop
  endfacet
  facet normal 0 0 -1
    outer loop
      vertex -8.75567 17.1497 0
      vertex -7.42597 16.3858 0
      vertex -8 16.5 0
    endloop
  endfacet
  facet normal 0 0 -1
    outer loop
      vertex -8.75567 17.1497 0
      vertex -8 16.5 0
      vertex -8.57402 16.3858 0
    endloop
  endfacet
  facet normal -0 0 -1
    outer loop
      vertex -7.3927 20.5571 0
      vertex -8.75567 17.1497 0
      vertex -7.39273 20.5571 0
    endloop
  endfacet
  facet normal 0 0 -1
    outer loop
      vertex -8.57402 16.3858 0
      vertex -8.88017 17.1249 0
      vertex -8.75567 17.1497 0
    endloop
  endfacet
  facet normal 0 0 -1
    outer loop
      vertex -9.06066 16.0607 0
      vertex -8.88017 17.1249 0
      vertex -8.57402 16.3858 0
    endloop
  endfacet
  facet normal 0 0 -1
    outer loop
      vertex -9.62634 16.6263 0
      vertex -9.06066 16.0607 0
      vertex -9.38582 15.574 0
    endloop
  endfacet
  facet normal 0 0 -1
    outer loop
      vertex -9.06066 16.0607 0
      vertex -9.62634 16.6263 0
      vertex -8.88017 17.1249 0
    endloop
  endfacet
  facet normal 0 0 -1
    outer loop
      vertex -10.1249 15.8802 0
      vertex -9.38582 15.574 0
      vertex -9.5 15 0
    endloop
  endfacet
  facet normal 0 0 -1
    outer loop
      vertex -9.5 15 0
      vertex -10.3 15 0
      vertex -10.1249 15.8802 0
    endloop
  endfacet
  facet normal 0 0 -1
    outer loop
      vertex 1.5 0 0
      vertex 2.3 0 0
      vertex 2.12492 -0.880172 0
    endloop
  endfacet
  facet normal 0 0 -1
    outer loop
      vertex 1.38582 -0.574024 0
      vertex 2.12492 -0.880172 0
      vertex 1.62634 -1.62634 0
    endloop
  endfacet
  facet normal 0 0 -1
    outer loop
      vertex 2.3 0 0
      vertex 1.5 0 0
      vertex 2.12492 0.880172 0
    endloop
  endfacet
  facet normal 0 0 -1
    outer loop
      vertex 1.38582 0.574024 0
      vertex 2.12492 0.880172 0
      vertex 1.5 0 0
    endloop
  endfacet
  facet normal 0 0 -1
    outer loop
      vertex 2.12492 -0.880172 0
      vertex 1.38582 -0.574024 0
      vertex 1.5 0 0
    endloop
  endfacet
  facet normal 0 0 -1
    outer loop
      vertex 1.62634 -1.62634 0
      vertex 1.06066 -1.06066 0
      vertex 1.38582 -0.574024 0
    endloop
  endfacet
  facet normal 0 0 -1
    outer loop
      vertex 0.880172 -2.12492 0
      vertex 1.06066 -1.06066 0
      vertex 1.62634 -1.62634 0
    endloop
  endfacet
  facet normal 0 0 -1
    outer loop
      vertex 0.880172 -2.12492 0
      vertex 0.574024 -1.38582 0
      vertex 1.06066 -1.06066 0
    endloop
  endfacet
  facet normal 0 0 -1
    outer loop
      vertex 0 -2.3 0
      vertex 0.574024 -1.38582 0
      vertex 0.880172 -2.12492 0
    endloop
  endfacet
  facet normal 0 0 -1
    outer loop
      vertex 0 -2.3 0
      vertex 0 -1.5 0
      vertex 0.574024 -1.38582 0
    endloop
  endfacet
  facet normal 0 0 -1
    outer loop
      vertex 0 -2.3 0
      vertex -0.574024 -1.38582 0
      vertex 0 -1.5 0
    endloop
  endfacet
  facet normal 0 0 -1
    outer loop
      vertex -0.880172 -2.12492 0
      vertex -0.574024 -1.38582 0
      vertex 0 -2.3 0
    endloop
  endfacet
  facet normal 0 0 -1
    outer loop
      vertex -0.880172 -2.12492 0
      vertex -1.06066 -1.06066 0
      vertex -0.574024 -1.38582 0
    endloop
  endfacet
  facet normal 0 0 -1
    outer loop
      vertex -1.62634 -1.62634 0
      vertex -1.06066 -1.06066 0
      vertex -0.880172 -2.12492 0
    endloop
  endfacet
  facet normal -0 0 -1
    outer loop
      vertex -1.06066 -1.06066 0
      vertex -1.92864 -1.17393 0
      vertex -1.38582 -0.574024 0
    endloop
  endfacet
  facet normal 0 0 -1
    outer loop
      vertex -1.92864 -1.17393 0
      vertex -1.06066 -1.06066 0
      vertex -1.62634 -1.62634 0
    endloop
  endfacet
  facet normal -0 0 -1
    outer loop
      vertex 2.12492 0.880172 0
      vertex 1.38582 0.574024 0
      vertex 1.62634 1.62634 0
    endloop
  endfacet
  facet normal 0 0 -1
    outer loop
      vertex 1.06066 1.06066 0
      vertex 1.62634 1.62634 0
      vertex 1.38582 0.574024 0
    endloop
  endfacet
  facet normal 0 0 -1
    outer loop
      vertex 1.06066 1.06066 0
      vertex 0.880172 2.12492 0
      vertex 1.62634 1.62634 0
    endloop
  endfacet
  facet normal 0 0 -1
    outer loop
      vertex 0.574024 1.38582 0
      vertex 0.880172 2.12492 0
      vertex 1.06066 1.06066 0
    endloop
  endfacet
  facet normal 0 0 -1
    outer loop
      vertex 0 1.5 0
      vertex 0.880172 2.12492 0
      vertex 0.574024 1.38582 0
    endloop
  endfacet
  facet normal 0 0 -1
    outer loop
      vertex 0 1.5 0
      vertex 0 2.3 0
      vertex 0.880172 2.12492 0
    endloop
  endfacet
  facet normal 0 0 -1
    outer loop
      vertex -0.574024 1.38582 0
      vertex 0 2.3 0
      vertex 0 1.5 0
    endloop
  endfacet
  facet normal 0 0 -1
    outer loop
      vertex -0.574024 1.38582 0
      vertex -0.880172 2.12492 0
      vertex 0 2.3 0
    endloop
  endfacet
  facet normal 0 0 -1
    outer loop
      vertex -1.39818 1.7788 0
      vertex -0.574024 1.38582 0
      vertex -1.06066 1.06066 0
    endloop
  endfacet
  facet normal 0 0 -1
    outer loop
      vertex -1.39818 1.7788 0
      vertex -1.06066 1.06066 0
      vertex -1.38582 0.574024 0
    endloop
  endfacet
  facet normal 0 0 -1
    outer loop
      vertex -0.574024 1.38582 0
      vertex -1.39818 1.7788 0
      vertex -0.880172 2.12492 0
    endloop
  endfacet
  facet normal 0 0 -1
    outer loop
      vertex -1.5 0 0
      vertex -1.39818 1.7788 0
      vertex -1.38582 0.574024 0
    endloop
  endfacet
  facet normal -0 0 -1
    outer loop
      vertex -1.38582 -0.574024 0
      vertex -1.92864 -1.17393 0
      vertex -1.5 0 0
    endloop
  endfacet
  facet normal 0 0 -1
    outer loop
      vertex -9.5 3.25186 0
      vertex -1.5 0 0
      vertex -1.92864 -1.17393 0
    endloop
  endfacet
  facet normal 0 0 -1
    outer loop
      vertex -1.5 0 0
      vertex -9.5 3.25186 0
      vertex -1.39818 1.7788 0
    endloop
  endfacet
  facet normal 0 0 -1
    outer loop
      vertex -12.3858 10.574 0
      vertex -9.5 9.58453 0
      vertex -9.5 3.25186 0
    endloop
  endfacet
  facet normal -0 0 -1
    outer loop
      vertex -9.38582 14.426 0
      vertex -10.1629 14.3107 0
      vertex -9.5 15 0
    endloop
  endfacet
  facet normal 0 0 -1
    outer loop
      vertex -10.3 15 0
      vertex -9.5 15 0
      vertex -10.1629 14.3107 0
    endloop
  endfacet
  facet normal 0 0 -1
    outer loop
      vertex -9.38582 15.574 0
      vertex -10.1249 15.8802 0
      vertex -9.62634 16.6263 0
    endloop
  endfacet
  facet normal 0 0 -1
    outer loop
      vertex -11.2683 0.524185 0
      vertex -9.5 3.25186 0
      vertex -1.92864 -1.17393 0
    endloop
  endfacet
  facet normal 0 0 -1
    outer loop
      vertex -11.8127 0.739212 0
      vertex -12.4714 2 0
      vertex -11.2683 0.524185 0
    endloop
  endfacet
  facet normal 0 0 -1
    outer loop
      vertex -12.4714 2 0
      vertex -11.8127 0.739212 0
      vertex -12.2333 1.14618 0
    endloop
  endfacet
  facet normal 0 0 -1
    outer loop
      vertex -11.2683 0.524185 0
      vertex -12.4714 2 0
      vertex -9.5 3.25186 0
    endloop
  endfacet
  facet normal -0 0 -1
    outer loop
      vertex -9.06066 13.9393 0
      vertex -12.263 10.7578 0
      vertex -10.1629 14.3107 0
    endloop
  endfacet
  facet normal 0 0 -1
    outer loop
      vertex -10.1629 14.3107 0
      vertex -12.263 10.7578 0
      vertex -12.2862 10.7717 0
    endloop
  endfacet
  facet normal 0 0 -1
    outer loop
      vertex 1.5 20 0
      vertex 2.3 20 0
      vertex 2.12492 19.1198 0
    endloop
  endfacet
  facet normal 0 0 -1
    outer loop
      vertex 1.38582 19.426 0
      vertex 2.12492 19.1198 0
      vertex 1.62634 18.3737 0
    endloop
  endfacet
  facet normal 0 0 -1
    outer loop
      vertex 2.3 20 0
      vertex 1.5 20 0
      vertex 2.12492 20.8802 0
    endloop
  endfacet
  facet normal 0 0 -1
    outer loop
      vertex 1.38582 20.574 0
      vertex 2.12492 20.8802 0
      vertex 1.5 20 0
    endloop
  endfacet
  facet normal 0 0 -1
    outer loop
      vertex 2.12492 19.1198 0
      vertex 1.38582 19.426 0
      vertex 1.5 20 0
    endloop
  endfacet
  facet normal 0 0 -1
    outer loop
      vertex 1.62634 18.3737 0
      vertex 1.06066 18.9393 0
      vertex 1.38582 19.426 0
    endloop
  endfacet
  facet normal 0 0 -1
    outer loop
      vertex 0.880172 17.8751 0
      vertex 1.06066 18.9393 0
      vertex 1.62634 18.3737 0
    endloop
  endfacet
  facet normal 0 0 -1
    outer loop
      vertex 0.880172 17.8751 0
      vertex 0.574024 18.6142 0
      vertex 1.06066 18.9393 0
    endloop
  endfacet
  facet normal 0 0 -1
    outer loop
      vertex 0 17.7 0
      vertex 0.574024 18.6142 0
      vertex 0.880172 17.8751 0
    endloop
  endfacet
  facet normal 0 0 -1
    outer loop
      vertex 0 17.7 0
      vertex 0 18.5 0
      vertex 0.574024 18.6142 0
    endloop
  endfacet
  facet normal 0 0 -1
    outer loop
      vertex 0 17.7 0
      vertex -0.574024 18.6142 0
      vertex 0 18.5 0
    endloop
  endfacet
  facet normal 0 0 -1
    outer loop
      vertex -0.880172 17.8751 0
      vertex -0.574024 18.6142 0
      vertex 0 17.7 0
    endloop
  endfacet
  facet normal 0 0 -1
    outer loop
      vertex -0.880172 17.8751 0
      vertex -1.06066 18.9393 0
      vertex -0.574024 18.6142 0
    endloop
  endfacet
  facet normal 0 0 -1
    outer loop
      vertex -1.62634 18.3737 0
      vertex -1.06066 18.9393 0
      vertex -0.880172 17.8751 0
    endloop
  endfacet
  facet normal -0 0 -1
    outer loop
      vertex -1.06066 18.9393 0
      vertex -1.71077 18.5 0
      vertex -1.38582 19.426 0
    endloop
  endfacet
  facet normal 0 0 -1
    outer loop
      vertex -1.71077 18.5 0
      vertex -1.06066 18.9393 0
      vertex -1.62634 18.3737 0
    endloop
  endfacet
  facet normal -0 0 -1
    outer loop
      vertex 2.12492 20.8802 0
      vertex 1.38582 20.574 0
      vertex 1.62634 21.6263 0
    endloop
  endfacet
  facet normal 0 0 -1
    outer loop
      vertex 1.06066 21.0607 0
      vertex 1.62634 21.6263 0
      vertex 1.38582 20.574 0
    endloop
  endfacet
  facet normal 0 0 -1
    outer loop
      vertex 1.06066 21.0607 0
      vertex 0.880172 22.1249 0
      vertex 1.62634 21.6263 0
    endloop
  endfacet
  facet normal 0 0 -1
    outer loop
      vertex 0.574024 21.3858 0
      vertex 0.880172 22.1249 0
      vertex 1.06066 21.0607 0
    endloop
  endfacet
  facet normal 0 0 -1
    outer loop
      vertex 0 21.5 0
      vertex 0.880172 22.1249 0
      vertex 0.574024 21.3858 0
    endloop
  endfacet
  facet normal 0 0 -1
    outer loop
      vertex 0 21.5 0
      vertex 0 22.3 0
      vertex 0.880172 22.1249 0
    endloop
  endfacet
  facet normal 0 0 -1
    outer loop
      vertex -0.574024 21.3858 0
      vertex 0 22.3 0
      vertex 0 21.5 0
    endloop
  endfacet
  facet normal 0 0 -1
    outer loop
      vertex -0.574024 21.3858 0
      vertex -0.880172 22.1249 0
      vertex 0 22.3 0
    endloop
  endfacet
  facet normal 0 0 -1
    outer loop
      vertex -1.06066 21.0607 0
      vertex -0.880172 22.1249 0
      vertex -0.574024 21.3858 0
    endloop
  endfacet
  facet normal 0 0 -1
    outer loop
      vertex -1.71077 21.5 0
      vertex -1.06066 21.0607 0
      vertex -1.38582 20.574 0
    endloop
  endfacet
  facet normal 0 0 -1
    outer loop
      vertex -1.06066 21.0607 0
      vertex -1.62634 21.6263 0
      vertex -0.880172 22.1249 0
    endloop
  endfacet
  facet normal 0 0 -1
    outer loop
      vertex -1.71077 21.5 0
      vertex -1.38582 20.574 0
      vertex -1.5 20 0
    endloop
  endfacet
  facet normal -0 0 -1
    outer loop
      vertex -1.38582 19.426 0
      vertex -1.71077 18.5 0
      vertex -1.5 20 0
    endloop
  endfacet
  facet normal 0 0 -1
    outer loop
      vertex -1.06066 21.0607 0
      vertex -1.71077 21.5 0
      vertex -1.62634 21.6263 0
    endloop
  endfacet
  facet normal 0 0 -1
    outer loop
      vertex -4.98445 18.5 0
      vertex -1.5 20 0
      vertex -1.71077 18.5 0
    endloop
  endfacet
  facet normal -0 0 -1
    outer loop
      vertex -1.5 20 0
      vertex -4.98445 18.5 0
      vertex -1.71077 21.5 0
    endloop
  endfacet
  facet normal 0 0 -1
    outer loop
      vertex -7.42597 16.3858 0
      vertex -4.98445 18.5 0
      vertex -5.97348 16.0274 0
    endloop
  endfacet
  facet normal 0 0 -1
    outer loop
      vertex -6 21.4965 0
      vertex -1.71077 21.5 0
      vertex -4.98445 18.5 0
    endloop
  endfacet
  facet normal -0 0 -1
    outer loop
      vertex -1.71077 21.5 0
      vertex -6 21.4965 0
      vertex -6 21.5 0
    endloop
  endfacet
  facet normal 0.555575 -0.831466 0
    outer loop
      vertex 0.880172 -2.12492 0
      vertex 1.62634 -1.62634 2
      vertex 0.880172 -2.12492 2
    endloop
  endfacet
  facet normal 0.555575 -0.831466 0
    outer loop
      vertex 1.62634 -1.62634 2
      vertex 0.880172 -2.12492 0
      vertex 1.62634 -1.62634 0
    endloop
  endfacet
  facet normal 0.831466 -0.555575 0
    outer loop
      vertex 1.62634 -1.62634 2
      vertex 2.12492 -0.880172 0
      vertex 2.12492 -0.880172 2
    endloop
  endfacet
  facet normal 0.831466 -0.555575 0
    outer loop
      vertex 2.12492 -0.880172 0
      vertex 1.62634 -1.62634 2
      vertex 1.62634 -1.62634 0
    endloop
  endfacet
  facet normal -0.195093 -0.980785 0
    outer loop
      vertex -0.880172 -2.12492 0
      vertex 0 -2.3 2
      vertex -0.880172 -2.12492 2
    endloop
  endfacet
  facet normal -0.195093 -0.980785 -0
    outer loop
      vertex 0 -2.3 2
      vertex -0.880172 -2.12492 0
      vertex 0 -2.3 0
    endloop
  endfacet
  facet normal -0.831462 -0.555582 0
    outer loop
      vertex -1.62634 -1.62634 0
      vertex -1.92864 -1.17393 2
      vertex -1.92864 -1.17393 0
    endloop
  endfacet
  facet normal -0.831462 -0.555582 0
    outer loop
      vertex -1.92864 -1.17393 2
      vertex -1.62634 -1.62634 0
      vertex -1.62634 -1.62634 2
    endloop
  endfacet
  facet normal -0.555575 -0.831466 0
    outer loop
      vertex -1.62634 -1.62634 0
      vertex -0.880172 -2.12492 2
      vertex -1.62634 -1.62634 2
    endloop
  endfacet
  facet normal -0.555575 -0.831466 -0
    outer loop
      vertex -0.880172 -2.12492 2
      vertex -1.62634 -1.62634 0
      vertex -0.880172 -2.12492 0
    endloop
  endfacet
  facet normal 0.980786 0.195087 0
    outer loop
      vertex -5.7 15 2
      vertex -5.87508 15.8802 0
      vertex -5.87508 15.8802 2
    endloop
  endfacet
  facet normal 0.980786 0.195087 0
    outer loop
      vertex -5.87508 15.8802 0
      vertex -5.7 15 2
      vertex -5.7 15 0
    endloop
  endfacet
  facet normal -0.195359 0.980732 0
    outer loop
      vertex -8.75567 17.1497 0
      vertex -8.88017 17.1249 2
      vertex -8.75567 17.1497 2
    endloop
  endfacet
  facet normal -0.195359 0.980732 0
    outer loop
      vertex -8.88017 17.1249 2
      vertex -8.75567 17.1497 0
      vertex -8.88017 17.1249 0
    endloop
  endfacet
  facet normal 0.831355 0.555742 0
    outer loop
      vertex -5.87508 15.8802 2
      vertex -5.97348 16.0274 0
      vertex -5.97348 16.0274 2
    endloop
  endfacet
  facet normal 0.831355 0.555742 0
    outer loop
      vertex -5.97348 16.0274 0
      vertex -5.87508 15.8802 2
      vertex -5.87508 15.8802 0
    endloop
  endfacet
  facet normal -0.831453 0.555595 0
    outer loop
      vertex -10.1249 15.8802 0
      vertex -9.62634 16.6263 2
      vertex -9.62634 16.6263 0
    endloop
  endfacet
  facet normal -0.831453 0.555595 0
    outer loop
      vertex -9.62634 16.6263 2
      vertex -10.1249 15.8802 0
      vertex -10.1249 15.8802 2
    endloop
  endfacet
  facet normal -0.980782 0.195109 0
    outer loop
      vertex -10.3 15 0
      vertex -10.1249 15.8802 2
      vertex -10.1249 15.8802 0
    endloop
  endfacet
  facet normal -0.980782 0.195109 0
    outer loop
      vertex -10.1249 15.8802 2
      vertex -10.3 15 0
      vertex -10.3 15 2
    endloop
  endfacet
  facet normal -0.55559 0.831457 0
    outer loop
      vertex -8.88017 17.1249 0
      vertex -9.62634 16.6263 2
      vertex -8.88017 17.1249 2
    endloop
  endfacet
  facet normal -0.55559 0.831457 0
    outer loop
      vertex -9.62634 16.6263 2
      vertex -8.88017 17.1249 0
      vertex -9.62634 16.6263 0
    endloop
  endfacet
  facet normal 0.980786 -0.195087 0
    outer loop
      vertex -5.87508 14.1198 2
      vertex -5.7 15 0
      vertex -5.7 15 2
    endloop
  endfacet
  facet normal 0.980786 -0.195087 0
    outer loop
      vertex -5.7 15 0
      vertex -5.87508 14.1198 2
      vertex -5.87508 14.1198 0
    endloop
  endfacet
  facet normal -0.980788 -0.195076 0
    outer loop
      vertex -10.1629 14.3107 0
      vertex -10.3 15 2
      vertex -10.3 15 0
    endloop
  endfacet
  facet normal -0.980788 -0.195076 0
    outer loop
      vertex -10.3 15 2
      vertex -10.1629 14.3107 0
      vertex -10.1629 14.3107 2
    endloop
  endfacet
  facet normal 0.831448 -0.555603 0
    outer loop
      vertex -6.37365 13.3737 2
      vertex -5.87508 14.1198 0
      vertex -5.87508 14.1198 2
    endloop
  endfacet
  facet normal 0.831448 -0.555603 0
    outer loop
      vertex -5.87508 14.1198 0
      vertex -6.37365 13.3737 2
      vertex -6.37365 13.3737 0
    endloop
  endfacet
  facet normal 0.555584 -0.83146 0
    outer loop
      vertex -7.11983 12.8751 0
      vertex -6.37365 13.3737 2
      vertex -7.11983 12.8751 2
    endloop
  endfacet
  facet normal 0.555584 -0.83146 0
    outer loop
      vertex -6.37365 13.3737 2
      vertex -7.11983 12.8751 0
      vertex -6.37365 13.3737 0
    endloop
  endfacet
  facet normal 0.195158 -0.980772 0
    outer loop
      vertex -7.58067 12.7834 0
      vertex -7.11983 12.8751 2
      vertex -7.58067 12.7834 2
    endloop
  endfacet
  facet normal 0.195158 -0.980772 0
    outer loop
      vertex -7.11983 12.8751 2
      vertex -7.58067 12.7834 0
      vertex -7.11983 12.8751 0
    endloop
  endfacet
  facet normal 0.980786 0.195087 0
    outer loop
      vertex 2.3 20 2
      vertex 2.12492 20.8802 0
      vertex 2.12492 20.8802 2
    endloop
  endfacet
  facet normal 0.980786 0.195087 0
    outer loop
      vertex 2.12492 20.8802 0
      vertex 2.3 20 2
      vertex 2.3 20 0
    endloop
  endfacet
  facet normal 0.195115 0.98078 -0
    outer loop
      vertex 0.880172 22.1249 0
      vertex 0 22.3 2
      vertex 0.880172 22.1249 2
    endloop
  endfacet
  facet normal 0.195115 0.98078 0
    outer loop
      vertex 0 22.3 2
      vertex 0.880172 22.1249 0
      vertex 0 22.3 0
    endloop
  endfacet
  facet normal 0.555591 -0.831456 0
    outer loop
      vertex 0.880172 17.8751 0
      vertex 1.62634 18.3737 2
      vertex 0.880172 17.8751 2
    endloop
  endfacet
  facet normal 0.555591 -0.831456 0
    outer loop
      vertex 1.62634 18.3737 2
      vertex 0.880172 17.8751 0
      vertex 1.62634 18.3737 0
    endloop
  endfacet
  facet normal 0.195115 -0.98078 0
    outer loop
      vertex 0 17.7 0
      vertex 0.880172 17.8751 2
      vertex 0 17.7 2
    endloop
  endfacet
  facet normal 0.195115 -0.98078 0
    outer loop
      vertex 0.880172 17.8751 2
      vertex 0 17.7 0
      vertex 0.880172 17.8751 0
    endloop
  endfacet
  facet normal 0.555591 0.831456 -0
    outer loop
      vertex 1.62634 21.6263 0
      vertex 0.880172 22.1249 2
      vertex 1.62634 21.6263 2
    endloop
  endfacet
  facet normal 0.555591 0.831456 0
    outer loop
      vertex 0.880172 22.1249 2
      vertex 1.62634 21.6263 0
      vertex 0.880172 22.1249 0
    endloop
  endfacet
  facet normal 0.831443 0.55561 0
    outer loop
      vertex 2.12492 20.8802 2
      vertex 1.62634 21.6263 0
      vertex 1.62634 21.6263 2
    endloop
  endfacet
  facet normal 0.831443 0.55561 0
    outer loop
      vertex 1.62634 21.6263 0
      vertex 2.12492 20.8802 2
      vertex 2.12492 20.8802 0
    endloop
  endfacet
  facet normal -0.195115 0.98078 0
    outer loop
      vertex 0 22.3 0
      vertex -0.880172 22.1249 2
      vertex 0 22.3 2
    endloop
  endfacet
  facet normal -0.195115 0.98078 0
    outer loop
      vertex -0.880172 22.1249 2
      vertex 0 22.3 0
      vertex -0.880172 22.1249 0
    endloop
  endfacet
  facet normal -0.555591 0.831456 0
    outer loop
      vertex -0.880172 22.1249 0
      vertex -1.62634 21.6263 2
      vertex -0.880172 22.1249 2
    endloop
  endfacet
  facet normal -0.555591 0.831456 0
    outer loop
      vertex -1.62634 21.6263 2
      vertex -0.880172 22.1249 0
      vertex -1.62634 21.6263 0
    endloop
  endfacet
  facet normal -0.831351 0.555748 0
    outer loop
      vertex -1.71077 21.5 0
      vertex -1.62634 21.6263 2
      vertex -1.62634 21.6263 0
    endloop
  endfacet
  facet normal -0.831351 0.555748 0
    outer loop
      vertex -1.62634 21.6263 2
      vertex -1.71077 21.5 0
      vertex -1.71077 21.5 2
    endloop
  endfacet
  facet normal -0.831351 -0.555748 0
    outer loop
      vertex -1.62634 18.3737 0
      vertex -1.71077 18.5 2
      vertex -1.71077 18.5 0
    endloop
  endfacet
  facet normal -0.831351 -0.555748 0
    outer loop
      vertex -1.71077 18.5 2
      vertex -1.62634 18.3737 0
      vertex -1.62634 18.3737 2
    endloop
  endfacet
  facet normal -0.195115 -0.98078 0
    outer loop
      vertex -0.880172 17.8751 0
      vertex 0 17.7 2
      vertex -0.880172 17.8751 2
    endloop
  endfacet
  facet normal -0.195115 -0.98078 -0
    outer loop
      vertex 0 17.7 2
      vertex -0.880172 17.8751 0
      vertex 0 17.7 0
    endloop
  endfacet
  facet normal -0.555591 -0.831456 0
    outer loop
      vertex -1.62634 18.3737 0
      vertex -0.880172 17.8751 2
      vertex -1.62634 18.3737 2
    endloop
  endfacet
  facet normal -0.555591 -0.831456 -0
    outer loop
      vertex -0.880172 17.8751 2
      vertex -1.62634 18.3737 0
      vertex -0.880172 17.8751 0
    endloop
  endfacet
  facet normal 0.831443 -0.55561 0
    outer loop
      vertex 1.62634 18.3737 2
      vertex 2.12492 19.1198 0
      vertex 2.12492 19.1198 2
    endloop
  endfacet
  facet normal 0.831443 -0.55561 0
    outer loop
      vertex 2.12492 19.1198 0
      vertex 1.62634 18.3737 2
      vertex 1.62634 18.3737 0
    endloop
  endfacet
  facet normal 0.980786 -0.195087 0
    outer loop
      vertex 2.12492 19.1198 2
      vertex 2.3 20 0
      vertex 2.3 20 2
    endloop
  endfacet
  facet normal 0.980786 -0.195087 0
    outer loop
      vertex 2.3 20 0
      vertex 2.12492 19.1198 2
      vertex 2.12492 19.1198 0
    endloop
  endfacet
  facet normal 0.18286 0.983139 -0
    outer loop
      vertex -6 21.4965 0
      vertex -6.01828 21.4999 2
      vertex -6 21.4965 2
    endloop
  endfacet
  facet normal 0.18286 0.983139 0
    outer loop
      vertex -6.01828 21.4999 2
      vertex -6 21.4965 0
      vertex -6.01828 21.4999 0
    endloop
  endfacet
  facet normal -0.207082 0.978324 0
    outer loop
      vertex -6.01828 21.4999 0
      vertex -6.59087 21.3787 2
      vertex -6.01828 21.4999 2
    endloop
  endfacet
  facet normal -0.207082 0.978324 0
    outer loop
      vertex -6.59087 21.3787 2
      vertex -6.01828 21.4999 0
      vertex -6.59087 21.3787 0
    endloop
  endfacet
  facet normal -0.565707 0.824606 0
    outer loop
      vertex -6.59087 21.3787 0
      vertex -7.0735 21.0476 2
      vertex -6.59087 21.3787 2
    endloop
  endfacet
  facet normal -0.565707 0.824606 0
    outer loop
      vertex -7.0735 21.0476 2
      vertex -6.59087 21.3787 0
      vertex -7.0735 21.0476 0
    endloop
  endfacet
  facet normal -0.838151 0.545439 0
    outer loop
      vertex -7.3927 20.5571 0
      vertex -7.0735 21.0476 2
      vertex -7.0735 21.0476 0
    endloop
  endfacet
  facet normal -0.838151 0.545439 0
    outer loop
      vertex -7.0735 21.0476 2
      vertex -7.3927 20.5571 0
      vertex -7.3927 20.5571 2
    endloop
  endfacet
  facet normal 0 1 -0
    outer loop
      vertex -7.3927 20.5571 0
      vertex -7.39273 20.5571 2
      vertex -7.3927 20.5571 2
    endloop
  endfacet
  facet normal 0 1 0
    outer loop
      vertex -7.39273 20.5571 2
      vertex -7.3927 20.5571 0
      vertex -7.39273 20.5571 0
    endloop
  endfacet
  facet normal -0.928479 0.371386 0
    outer loop
      vertex -8.75567 17.1497 0
      vertex -7.39273 20.5571 2
      vertex -7.39273 20.5571 0
    endloop
  endfacet
  facet normal -0.928479 0.371386 0
    outer loop
      vertex -7.39273 20.5571 2
      vertex -8.75567 17.1497 0
      vertex -8.75567 17.1497 2
    endloop
  endfacet
  facet normal -0.857504 0.514478 0
    outer loop
      vertex -12.2862 10.7717 0
      vertex -10.1629 14.3107 2
      vertex -10.1629 14.3107 0
    endloop
  endfacet
  facet normal -0.857504 0.514478 0
    outer loop
      vertex -10.1629 14.3107 2
      vertex -12.2862 10.7717 0
      vertex -12.2862 10.7717 2
    endloop
  endfacet
  facet normal -0.513952 -0.857819 0
    outer loop
      vertex -12.2862 10.7717 0
      vertex -12.263 10.7578 2
      vertex -12.2862 10.7717 2
    endloop
  endfacet
  facet normal -0.513952 -0.857819 -0
    outer loop
      vertex -12.263 10.7578 2
      vertex -12.2862 10.7717 0
      vertex -12.263 10.7578 0
    endloop
  endfacet
  facet normal -0.831493 0.555535 0
    outer loop
      vertex -12.3858 10.574 0
      vertex -12.263 10.7578 2
      vertex -12.263 10.7578 0
    endloop
  endfacet
  facet normal -0.831493 0.555535 0
    outer loop
      vertex -12.263 10.7578 2
      vertex -12.3858 10.574 0
      vertex -12.3858 10.574 2
    endloop
  endfacet
  facet normal -0.980777 0.19513 0
    outer loop
      vertex -12.5 10 0
      vertex -12.3858 10.574 2
      vertex -12.3858 10.574 0
    endloop
  endfacet
  facet normal -0.980777 0.19513 0
    outer loop
      vertex -12.3858 10.574 2
      vertex -12.5 10 0
      vertex -12.5 10 2
    endloop
  endfacet
  facet normal -1 0 0
    outer loop
      vertex -12.5 2 0
      vertex -12.5 10 2
      vertex -12.5 10 0
    endloop
  endfacet
  facet normal -1 -0 0
    outer loop
      vertex -12.5 10 2
      vertex -12.5 2 0
      vertex -12.5 2 2
    endloop
  endfacet
  facet normal 0 -1 0
    outer loop
      vertex -12.5 2 0
      vertex -12.4714 2 2
      vertex -12.5 2 2
    endloop
  endfacet
  facet normal 0 -1 -0
    outer loop
      vertex -12.4714 2 2
      vertex -12.5 2 0
      vertex -12.4714 2 0
    endloop
  endfacet
  facet normal -0.99986 -0.0167243 0
    outer loop
      vertex -12.4661 1.68314 0
      vertex -12.4714 2 2
      vertex -12.4714 2 0
    endloop
  endfacet
  facet normal -0.99986 -0.0167243 0
    outer loop
      vertex -12.4714 2 2
      vertex -12.4661 1.68314 0
      vertex -12.4661 1.68314 2
    endloop
  endfacet
  facet normal -0.917482 -0.397776 0
    outer loop
      vertex -12.2333 1.14618 0
      vertex -12.4661 1.68314 2
      vertex -12.4661 1.68314 0
    endloop
  endfacet
  facet normal -0.917482 -0.397776 0
    outer loop
      vertex -12.4661 1.68314 2
      vertex -12.2333 1.14618 0
      vertex -12.2333 1.14618 2
    endloop
  endfacet
  facet normal -0.695365 -0.718657 0
    outer loop
      vertex -12.2333 1.14618 0
      vertex -11.8127 0.739212 2
      vertex -12.2333 1.14618 2
    endloop
  endfacet
  facet normal -0.695365 -0.718657 -0
    outer loop
      vertex -11.8127 0.739212 2
      vertex -12.2333 1.14618 0
      vertex -11.8127 0.739212 0
    endloop
  endfacet
  facet normal -0.367362 -0.930078 0
    outer loop
      vertex -11.8127 0.739212 0
      vertex -11.2683 0.524185 2
      vertex -11.8127 0.739212 2
    endloop
  endfacet
  facet normal -0.367362 -0.930078 -0
    outer loop
      vertex -11.2683 0.524185 2
      vertex -11.8127 0.739212 0
      vertex -11.2683 0.524185 0
    endloop
  endfacet
  facet normal -0.178885 -0.98387 0
    outer loop
      vertex -11.2683 0.524185 0
      vertex -1.92864 -1.17393 2
      vertex -11.2683 0.524185 2
    endloop
  endfacet
  facet normal -0.178885 -0.98387 -0
    outer loop
      vertex -1.92864 -1.17393 2
      vertex -11.2683 0.524185 0
      vertex -1.92864 -1.17393 0
    endloop
  endfacet
  facet normal 0.178886 0.98387 -0
    outer loop
      vertex -1.39818 1.7788 0
      vertex -9.5 3.25186 2
      vertex -1.39818 1.7788 2
    endloop
  endfacet
  facet normal 0.178886 0.98387 0
    outer loop
      vertex -9.5 3.25186 2
      vertex -1.39818 1.7788 0
      vertex -9.5 3.25186 0
    endloop
  endfacet
  facet normal 1 -0 0
    outer loop
      vertex -9.5 3.25186 2
      vertex -9.5 9.58453 0
      vertex -9.5 9.58453 2
    endloop
  endfacet
  facet normal 1 0 0
    outer loop
      vertex -9.5 9.58453 0
      vertex -9.5 3.25186 2
      vertex -9.5 3.25186 0
    endloop
  endfacet
  facet normal 0.857492 -0.514497 0
    outer loop
      vertex -9.5 9.58453 2
      vertex -7.58067 12.7834 0
      vertex -7.58067 12.7834 2
    endloop
  endfacet
  facet normal 0.857492 -0.514497 0
    outer loop
      vertex -7.58067 12.7834 0
      vertex -9.5 9.58453 2
      vertex -9.5 9.58453 0
    endloop
  endfacet
  facet normal 0.928478 -0.371387 0
    outer loop
      vertex -5.97348 16.0274 2
      vertex -4.98445 18.5 0
      vertex -4.98445 18.5 2
    endloop
  endfacet
  facet normal 0.928478 -0.371387 0
    outer loop
      vertex -4.98445 18.5 0
      vertex -5.97348 16.0274 2
      vertex -5.97348 16.0274 0
    endloop
  endfacet
  facet normal 0 -1 0
    outer loop
      vertex -4.98445 18.5 0
      vertex -1.71077 18.5 2
      vertex -4.98445 18.5 2
    endloop
  endfacet
  facet normal 0 -1 -0
    outer loop
      vertex -1.71077 18.5 2
      vertex -4.98445 18.5 0
      vertex -1.71077 18.5 0
    endloop
  endfacet
  facet normal 0 1 -0
    outer loop
      vertex -1.71077 21.5 0
      vertex -6 21.5 2
      vertex -1.71077 21.5 2
    endloop
  endfacet
  facet normal 0 1 0
    outer loop
      vertex -6 21.5 2
      vertex -1.71077 21.5 0
      vertex -6 21.5 0
    endloop
  endfacet
  facet normal -1 0 0
    outer loop
      vertex -6 21.4965 0
      vertex -6 21.5 2
      vertex -6 21.5 0
    endloop
  endfacet
  facet normal -1 -0 0
    outer loop
      vertex -6 21.5 2
      vertex -6 21.4965 0
      vertex -6 21.4965 2
    endloop
  endfacet
  facet normal -0.980785 -0.19509 0
    outer loop
      vertex 1.5 0 0
      vertex 1.38582 0.574024 2
      vertex 1.38582 0.574024 0
    endloop
  endfacet
  facet normal -0.980785 -0.19509 0
    outer loop
      vertex 1.38582 0.574024 2
      vertex 1.5 0 0
      vertex 1.5 0 2
    endloop
  endfacet
  facet normal 0.980785 -0.19509 0
    outer loop
      vertex -1.5 0 2
      vertex -1.38582 0.574024 0
      vertex -1.38582 0.574024 2
    endloop
  endfacet
  facet normal 0.980785 -0.19509 0
    outer loop
      vertex -1.38582 0.574024 0
      vertex -1.5 0 2
      vertex -1.5 0 0
    endloop
  endfacet
  facet normal -0.19509 -0.980785 0
    outer loop
      vertex 0 1.5 0
      vertex 0.574024 1.38582 2
      vertex 0 1.5 2
    endloop
  endfacet
  facet normal -0.19509 -0.980785 -0
    outer loop
      vertex 0.574024 1.38582 2
      vertex 0 1.5 0
      vertex 0.574024 1.38582 0
    endloop
  endfacet
  facet normal -0.831469 -0.55557 0
    outer loop
      vertex 1.38582 0.574024 0
      vertex 1.06066 1.06066 2
      vertex 1.06066 1.06066 0
    endloop
  endfacet
  facet normal -0.831469 -0.55557 0
    outer loop
      vertex 1.06066 1.06066 2
      vertex 1.38582 0.574024 0
      vertex 1.38582 0.574024 2
    endloop
  endfacet
  facet normal -0.55557 -0.831469 0
    outer loop
      vertex 0.574024 1.38582 0
      vertex 1.06066 1.06066 2
      vertex 0.574024 1.38582 2
    endloop
  endfacet
  facet normal -0.55557 -0.831469 -0
    outer loop
      vertex 1.06066 1.06066 2
      vertex 0.574024 1.38582 0
      vertex 1.06066 1.06066 0
    endloop
  endfacet
  facet normal 0.55557 -0.831469 0
    outer loop
      vertex -1.06066 1.06066 0
      vertex -0.574024 1.38582 2
      vertex -1.06066 1.06066 2
    endloop
  endfacet
  facet normal 0.55557 -0.831469 0
    outer loop
      vertex -0.574024 1.38582 2
      vertex -1.06066 1.06066 0
      vertex -0.574024 1.38582 0
    endloop
  endfacet
  facet normal 0.831469 -0.55557 0
    outer loop
      vertex -1.38582 0.574024 2
      vertex -1.06066 1.06066 0
      vertex -1.06066 1.06066 2
    endloop
  endfacet
  facet normal 0.831469 -0.55557 0
    outer loop
      vertex -1.06066 1.06066 0
      vertex -1.38582 0.574024 2
      vertex -1.38582 0.574024 0
    endloop
  endfacet
  facet normal 0.19509 -0.980785 0
    outer loop
      vertex -0.574024 1.38582 0
      vertex 0 1.5 2
      vertex -0.574024 1.38582 2
    endloop
  endfacet
  facet normal 0.19509 -0.980785 0
    outer loop
      vertex 0 1.5 2
      vertex -0.574024 1.38582 0
      vertex 0 1.5 0
    endloop
  endfacet
  facet normal 0.55557 0.831469 -0
    outer loop
      vertex -0.574024 -1.38582 0
      vertex -1.06066 -1.06066 2
      vertex -0.574024 -1.38582 2
    endloop
  endfacet
  facet normal 0.55557 0.831469 0
    outer loop
      vertex -1.06066 -1.06066 2
      vertex -0.574024 -1.38582 0
      vertex -1.06066 -1.06066 0
    endloop
  endfacet
  facet normal 0.980785 0.19509 0
    outer loop
      vertex -1.38582 -0.574024 2
      vertex -1.5 0 0
      vertex -1.5 0 2
    endloop
  endfacet
  facet normal 0.980785 0.19509 0
    outer loop
      vertex -1.5 0 0
      vertex -1.38582 -0.574024 2
      vertex -1.38582 -0.574024 0
    endloop
  endfacet
  facet normal -0.980785 0.19509 0
    outer loop
      vertex 1.38582 -0.574024 0
      vertex 1.5 0 2
      vertex 1.5 0 0
    endloop
  endfacet
  facet normal -0.980785 0.19509 0
    outer loop
      vertex 1.5 0 2
      vertex 1.38582 -0.574024 0
      vertex 1.38582 -0.574024 2
    endloop
  endfacet
  facet normal -0.55557 0.831469 0
    outer loop
      vertex 1.06066 -1.06066 0
      vertex 0.574024 -1.38582 2
      vertex 1.06066 -1.06066 2
    endloop
  endfacet
  facet normal -0.55557 0.831469 0
    outer loop
      vertex 0.574024 -1.38582 2
      vertex 1.06066 -1.06066 0
      vertex 0.574024 -1.38582 0
    endloop
  endfacet
  facet normal -0.19509 0.980785 0
    outer loop
      vertex 0.574024 -1.38582 0
      vertex 0 -1.5 2
      vertex 0.574024 -1.38582 2
    endloop
  endfacet
  facet normal -0.19509 0.980785 0
    outer loop
      vertex 0 -1.5 2
      vertex 0.574024 -1.38582 0
      vertex 0 -1.5 0
    endloop
  endfacet
  facet normal -0.831469 0.55557 0
    outer loop
      vertex 1.06066 -1.06066 0
      vertex 1.38582 -0.574024 2
      vertex 1.38582 -0.574024 0
    endloop
  endfacet
  facet normal -0.831469 0.55557 0
    outer loop
      vertex 1.38582 -0.574024 2
      vertex 1.06066 -1.06066 0
      vertex 1.06066 -1.06066 2
    endloop
  endfacet
  facet normal 0.19509 0.980785 -0
    outer loop
      vertex 0 -1.5 0
      vertex -0.574024 -1.38582 2
      vertex 0 -1.5 2
    endloop
  endfacet
  facet normal 0.19509 0.980785 0
    outer loop
      vertex -0.574024 -1.38582 2
      vertex 0 -1.5 0
      vertex -0.574024 -1.38582 0
    endloop
  endfacet
  facet normal 0.831469 0.55557 0
    outer loop
      vertex -1.06066 -1.06066 2
      vertex -1.38582 -0.574024 0
      vertex -1.38582 -0.574024 2
    endloop
  endfacet
  facet normal 0.831469 0.55557 0
    outer loop
      vertex -1.38582 -0.574024 0
      vertex -1.06066 -1.06066 2
      vertex -1.06066 -1.06066 0
    endloop
  endfacet
  facet normal -0.980784 -0.195097 0
    outer loop
      vertex -6.5 15 0
      vertex -6.61418 15.574 2
      vertex -6.61418 15.574 0
    endloop
  endfacet
  facet normal -0.980784 -0.195097 0
    outer loop
      vertex -6.61418 15.574 2
      vertex -6.5 15 0
      vertex -6.5 15 2
    endloop
  endfacet
  facet normal 0.980784 -0.195097 0
    outer loop
      vertex -9.5 15 2
      vertex -9.38582 15.574 0
      vertex -9.38582 15.574 2
    endloop
  endfacet
  facet normal 0.980784 -0.195097 0
    outer loop
      vertex -9.38582 15.574 0
      vertex -9.5 15 2
      vertex -9.5 15 0
    endloop
  endfacet
  facet normal -0.19512 -0.980779 0
    outer loop
      vertex -8 16.5 0
      vertex -7.42597 16.3858 2
      vertex -8 16.5 2
    endloop
  endfacet
  facet normal -0.19512 -0.980779 -0
    outer loop
      vertex -7.42597 16.3858 2
      vertex -8 16.5 0
      vertex -7.42597 16.3858 0
    endloop
  endfacet
  facet normal -0.831503 -0.55552 0
    outer loop
      vertex -6.61418 15.574 0
      vertex -6.93934 16.0607 2
      vertex -6.93934 16.0607 0
    endloop
  endfacet
  facet normal -0.831503 -0.55552 0
    outer loop
      vertex -6.93934 16.0607 2
      vertex -6.61418 15.574 0
      vertex -6.61418 15.574 2
    endloop
  endfacet
  facet normal -0.555504 -0.831514 0
    outer loop
      vertex -7.42597 16.3858 0
      vertex -6.93934 16.0607 2
      vertex -7.42597 16.3858 2
    endloop
  endfacet
  facet normal -0.555504 -0.831514 -0
    outer loop
      vertex -6.93934 16.0607 2
      vertex -7.42597 16.3858 0
      vertex -6.93934 16.0607 0
    endloop
  endfacet
  facet normal 0.555496 -0.831519 0
    outer loop
      vertex -9.06066 16.0607 0
      vertex -8.57402 16.3858 2
      vertex -9.06066 16.0607 2
    endloop
  endfacet
  facet normal 0.555496 -0.831519 0
    outer loop
      vertex -8.57402 16.3858 2
      vertex -9.06066 16.0607 0
      vertex -8.57402 16.3858 0
    endloop
  endfacet
  facet normal 0.831503 -0.55552 0
    outer loop
      vertex -9.38582 15.574 2
      vertex -9.06066 16.0607 0
      vertex -9.06066 16.0607 2
    endloop
  endfacet
  facet normal 0.831503 -0.55552 0
    outer loop
      vertex -9.06066 16.0607 0
      vertex -9.38582 15.574 2
      vertex -9.38582 15.574 0
    endloop
  endfacet
  facet normal 0.195124 -0.980779 0
    outer loop
      vertex -8.57402 16.3858 0
      vertex -8 16.5 2
      vertex -8.57402 16.3858 2
    endloop
  endfacet
  facet normal 0.195124 -0.980779 0
    outer loop
      vertex -8 16.5 2
      vertex -8.57402 16.3858 0
      vertex -8 16.5 0
    endloop
  endfacet
  facet normal -0.19512 0.980779 0
    outer loop
      vertex -7.42597 13.6142 0
      vertex -8 13.5 2
      vertex -7.42597 13.6142 2
    endloop
  endfacet
  facet normal -0.19512 0.980779 0
    outer loop
      vertex -8 13.5 2
      vertex -7.42597 13.6142 0
      vertex -8 13.5 0
    endloop
  endfacet
  facet normal -0.831503 0.55552 0
    outer loop
      vertex -6.93934 13.9393 0
      vertex -6.61418 14.426 2
      vertex -6.61418 14.426 0
    endloop
  endfacet
  facet normal -0.831503 0.55552 0
    outer loop
      vertex -6.61418 14.426 2
      vertex -6.93934 13.9393 0
      vertex -6.93934 13.9393 2
    endloop
  endfacet
  facet normal 0.555496 0.831519 -0
    outer loop
      vertex -8.57402 13.6142 0
      vertex -9.06066 13.9393 2
      vertex -8.57402 13.6142 2
    endloop
  endfacet
  facet normal 0.555496 0.831519 0
    outer loop
      vertex -9.06066 13.9393 2
      vertex -8.57402 13.6142 0
      vertex -9.06066 13.9393 0
    endloop
  endfacet
  facet normal 0.980784 0.195097 0
    outer loop
      vertex -9.38582 14.426 2
      vertex -9.5 15 0
      vertex -9.5 15 2
    endloop
  endfacet
  facet normal 0.980784 0.195097 0
    outer loop
      vertex -9.5 15 0
      vertex -9.38582 14.426 2
      vertex -9.38582 14.426 0
    endloop
  endfacet
  facet normal -0.980784 0.195097 0
    outer loop
      vertex -6.61418 14.426 0
      vertex -6.5 15 2
      vertex -6.5 15 0
    endloop
  endfacet
  facet normal -0.980784 0.195097 0
    outer loop
      vertex -6.5 15 2
      vertex -6.61418 14.426 0
      vertex -6.61418 14.426 2
    endloop
  endfacet
  facet normal -0.555504 0.831514 0
    outer loop
      vertex -6.93934 13.9393 0
      vertex -7.42597 13.6142 2
      vertex -6.93934 13.9393 2
    endloop
  endfacet
  facet normal -0.555504 0.831514 0
    outer loop
      vertex -7.42597 13.6142 2
      vertex -6.93934 13.9393 0
      vertex -7.42597 13.6142 0
    endloop
  endfacet
  facet normal 0.195124 0.980779 -0
    outer loop
      vertex -8 13.5 0
      vertex -8.57402 13.6142 2
      vertex -8 13.5 2
    endloop
  endfacet
  facet normal 0.195124 0.980779 0
    outer loop
      vertex -8.57402 13.6142 2
      vertex -8 13.5 0
      vertex -8.57402 13.6142 0
    endloop
  endfacet
  facet normal 0.831503 0.55552 0
    outer loop
      vertex -9.06066 13.9393 2
      vertex -9.38582 14.426 0
      vertex -9.38582 14.426 2
    endloop
  endfacet
  facet normal 0.831503 0.55552 0
    outer loop
      vertex -9.38582 14.426 0
      vertex -9.06066 13.9393 2
      vertex -9.06066 13.9393 0
    endloop
  endfacet
  facet normal -0.980784 -0.195097 0
    outer loop
      vertex 1.5 20 0
      vertex 1.38582 20.574 2
      vertex 1.38582 20.574 0
    endloop
  endfacet
  facet normal -0.980784 -0.195097 0
    outer loop
      vertex 1.38582 20.574 2
      vertex 1.5 20 0
      vertex 1.5 20 2
    endloop
  endfacet
  facet normal 0.980784 0.195097 0
    outer loop
      vertex -1.38582 19.426 2
      vertex -1.5 20 0
      vertex -1.5 20 2
    endloop
  endfacet
  facet normal 0.980784 0.195097 0
    outer loop
      vertex -1.5 20 0
      vertex -1.38582 19.426 2
      vertex -1.38582 19.426 0
    endloop
  endfacet
  facet normal 0.195122 -0.980779 0
    outer loop
      vertex -0.574024 21.3858 0
      vertex 0 21.5 2
      vertex -0.574024 21.3858 2
    endloop
  endfacet
  facet normal 0.195122 -0.980779 0
    outer loop
      vertex 0 21.5 2
      vertex -0.574024 21.3858 0
      vertex 0 21.5 0
    endloop
  endfacet
  facet normal -0.195122 0.980779 0
    outer loop
      vertex 0.574024 18.6142 0
      vertex 0 18.5 2
      vertex 0.574024 18.6142 2
    endloop
  endfacet
  facet normal -0.195122 0.980779 0
    outer loop
      vertex 0 18.5 2
      vertex 0.574024 18.6142 0
      vertex 0 18.5 0
    endloop
  endfacet
  facet normal -0.5555 -0.831517 0
    outer loop
      vertex 0.574024 21.3858 0
      vertex 1.06066 21.0607 2
      vertex 0.574024 21.3858 2
    endloop
  endfacet
  facet normal -0.5555 -0.831517 -0
    outer loop
      vertex 1.06066 21.0607 2
      vertex 0.574024 21.3858 0
      vertex 1.06066 21.0607 0
    endloop
  endfacet
  facet normal -0.831503 -0.55552 0
    outer loop
      vertex 1.38582 20.574 0
      vertex 1.06066 21.0607 2
      vertex 1.06066 21.0607 0
    endloop
  endfacet
  facet normal -0.831503 -0.55552 0
    outer loop
      vertex 1.06066 21.0607 2
      vertex 1.38582 20.574 0
      vertex 1.38582 20.574 2
    endloop
  endfacet
  facet normal -0.195122 -0.980779 0
    outer loop
      vertex 0 21.5 0
      vertex 0.574024 21.3858 2
      vertex 0 21.5 2
    endloop
  endfacet
  facet normal -0.195122 -0.980779 -0
    outer loop
      vertex 0.574024 21.3858 2
      vertex 0 21.5 0
      vertex 0.574024 21.3858 0
    endloop
  endfacet
  facet normal 0.831503 -0.55552 0
    outer loop
      vertex -1.38582 20.574 2
      vertex -1.06066 21.0607 0
      vertex -1.06066 21.0607 2
    endloop
  endfacet
  facet normal 0.831503 -0.55552 0
    outer loop
      vertex -1.06066 21.0607 0
      vertex -1.38582 20.574 2
      vertex -1.38582 20.574 0
    endloop
  endfacet
  facet normal 0.980784 -0.195097 0
    outer loop
      vertex -1.5 20 2
      vertex -1.38582 20.574 0
      vertex -1.38582 20.574 2
    endloop
  endfacet
  facet normal 0.980784 -0.195097 0
    outer loop
      vertex -1.38582 20.574 0
      vertex -1.5 20 2
      vertex -1.5 20 0
    endloop
  endfacet
  facet normal 0.5555 -0.831517 0
    outer loop
      vertex -1.06066 21.0607 0
      vertex -0.574024 21.3858 2
      vertex -1.06066 21.0607 2
    endloop
  endfacet
  facet normal 0.5555 -0.831517 0
    outer loop
      vertex -0.574024 21.3858 2
      vertex -1.06066 21.0607 0
      vertex -0.574024 21.3858 0
    endloop
  endfacet
  facet normal -0.980784 0.195097 0
    outer loop
      vertex 1.38582 19.426 0
      vertex 1.5 20 2
      vertex 1.5 20 0
    endloop
  endfacet
  facet normal -0.980784 0.195097 0
    outer loop
      vertex 1.5 20 2
      vertex 1.38582 19.426 0
      vertex 1.38582 19.426 2
    endloop
  endfacet
  facet normal -0.5555 0.831517 0
    outer loop
      vertex 1.06066 18.9393 0
      vertex 0.574024 18.6142 2
      vertex 1.06066 18.9393 2
    endloop
  endfacet
  facet normal -0.5555 0.831517 0
    outer loop
      vertex 0.574024 18.6142 2
      vertex 1.06066 18.9393 0
      vertex 0.574024 18.6142 0
    endloop
  endfacet
  facet normal -0.831503 0.55552 0
    outer loop
      vertex 1.06066 18.9393 0
      vertex 1.38582 19.426 2
      vertex 1.38582 19.426 0
    endloop
  endfacet
  facet normal -0.831503 0.55552 0
    outer loop
      vertex 1.38582 19.426 2
      vertex 1.06066 18.9393 0
      vertex 1.06066 18.9393 2
    endloop
  endfacet
  facet normal 0.195122 0.980779 -0
    outer loop
      vertex 0 18.5 0
      vertex -0.574024 18.6142 2
      vertex 0 18.5 2
    endloop
  endfacet
  facet normal 0.195122 0.980779 0
    outer loop
      vertex -0.574024 18.6142 2
      vertex 0 18.5 0
      vertex -0.574024 18.6142 0
    endloop
  endfacet
  facet normal 0.5555 0.831517 -0
    outer loop
      vertex -0.574024 18.6142 0
      vertex -1.06066 18.9393 2
      vertex -0.574024 18.6142 2
    endloop
  endfacet
  facet normal 0.5555 0.831517 0
    outer loop
      vertex -1.06066 18.9393 2
      vertex -0.574024 18.6142 0
      vertex -1.06066 18.9393 0
    endloop
  endfacet
  facet normal 0.831503 0.55552 0
    outer loop
      vertex -1.06066 18.9393 2
      vertex -1.38582 19.426 0
      vertex -1.38582 19.426 2
    endloop
  endfacet
  facet normal 0.831503 0.55552 0
    outer loop
      vertex -1.38582 19.426 0
      vertex -1.06066 18.9393 2
      vertex -1.06066 18.9393 0
    endloop
  endfacet
endsolid OpenSCAD_Model
