<?xml version="1.0" encoding="UTF-8" standalone="no"?>
<!-- Created with Inkscape (http://www.inkscape.org/) -->

<svg
   width="17.310366mm"
   height="24.999718mm"
   viewBox="0 0 17.310366 24.999717"
   version="1.1"
   id="svg5"
   xml:space="preserve"
   inkscape:version="1.2 (dc2aedaf03, 2022-05-15)"
   sodipodi:docname="barrel-hinge-arm-25.svg"
   xmlns:inkscape="http://www.inkscape.org/namespaces/inkscape"
   xmlns:sodipodi="http://sodipodi.sourceforge.net/DTD/sodipodi-0.dtd"
   xmlns="http://www.w3.org/2000/svg"
   xmlns:svg="http://www.w3.org/2000/svg"><sodipodi:namedview
     id="namedview7"
     pagecolor="#ffffff"
     bordercolor="#111111"
     borderopacity="1"
     inkscape:showpageshadow="0"
     inkscape:pageopacity="0"
     inkscape:pagecheckerboard="1"
     inkscape:deskcolor="#d1d1d1"
     inkscape:document-units="mm"
     showgrid="false"
     inkscape:zoom="6.7277217"
     inkscape:cx="30.247981"
     inkscape:cy="36.26785"
     inkscape:window-width="2560"
     inkscape:window-height="1377"
     inkscape:window-x="1912"
     inkscape:window-y="1072"
     inkscape:window-maximized="1"
     inkscape:current-layer="layer1" /><defs
     id="defs2" /><g
     inkscape:label="Layer 1"
     inkscape:groupmode="layer"
     id="layer1"
     transform="translate(-26.388939,-82.612122)"><path
       id="path331"
       style="fill:#000000;stroke-width:1"
       d="m 37.658472,82.61213 c -0.700985,-0.0015 -1.457283,0.2212 -2.040703,0.510563 -7.849384,3.255737 -12.185163,16.190302 -7.05302,20.223767 1.267942,1.50442 3.91556,2.33976 6.985104,3.16415 0.741831,0.16065 6.090046,1.24966 6.555672,1.08417 0.778139,-0.27657 1.409951,-0.96616 1.555461,-1.69705 h 5.16e-4 c 0.217215,-1.09096 -0.533761,-2.18842 -1.429887,-2.71611 -2.128757,-1.25346 -4.62277,1.25713 -7.471895,0.56327 -4.951429,-1.20585 -6.750551,-3.14923 -6.815618,-5.537448 -0.06586,-2.417458 1.777321,-3.12578 3.352272,-3.598395 1.808506,-0.542701 2.045849,-0.997052 1.189948,-4.727914 -0.549263,-2.394251 0.471971,-2.792372 1.390664,-3.477665 0.716744,-0.534646 0.89229,-0.860951 2.550553,0.420808 1.009399,0.780217 2.430852,0.07784 3.006535,-0.684713 0.539533,-0.714688 0.304755,-2.430609 -0.347782,-3.042191 -0.370321,-0.347079 -0.882613,-0.484088 -1.42782,-0.485242 z"
       sodipodi:nodetypes="cccccccccssccscsc" /></g></svg>
