<?xml version="1.0" encoding="UTF-8" standalone="no"?>
<!-- Created with Inkscape (http://www.inkscape.org/) -->

<svg
   width="16.5mm"
   height="25mm"
   viewBox="0 0 16.5 24.999999"
   version="1.1"
   id="svg5"
   xml:space="preserve"
   inkscape:version="1.2 (dc2aedaf03, 2022-05-15)"
   sodipodi:docname="barrel-hinge-arm-25.svg"
   xmlns:inkscape="http://www.inkscape.org/namespaces/inkscape"
   xmlns:sodipodi="http://sodipodi.sourceforge.net/DTD/sodipodi-0.dtd"
   xmlns="http://www.w3.org/2000/svg"
   xmlns:svg="http://www.w3.org/2000/svg"><sodipodi:namedview
     id="namedview7"
     pagecolor="#ffffff"
     bordercolor="#111111"
     borderopacity="1"
     inkscape:showpageshadow="0"
     inkscape:pageopacity="0"
     inkscape:pagecheckerboard="1"
     inkscape:deskcolor="#d1d1d1"
     inkscape:document-units="mm"
     showgrid="false"
     inkscape:zoom="9.5144352"
     inkscape:cx="36.418347"
     inkscape:cy="33.738209"
     inkscape:window-width="1920"
     inkscape:window-height="1017"
     inkscape:window-x="1072"
     inkscape:window-y="-8"
     inkscape:window-maximized="1"
     inkscape:current-layer="layer1" /><defs
     id="defs2" /><g
     inkscape:label="Layer 1"
     inkscape:groupmode="layer"
     id="layer1"
     transform="translate(-27.261451,-81.972203)"><path
       id="path331"
       style="fill:#000000;stroke-width:1"
       d="M 35.912086 81.972203 C 35.211101 81.970703 34.454803 82.193403 33.871383 82.482766 C 30.665176 84.072998 27.407093 87.396592 27.270753 90.994908 C 27.672019 95.916918 26.393989 100.05774 28.626742 102.70685 C 29.894684 104.21127 32.542302 105.04661 35.611846 105.871 C 36.353677 106.03165 41.701892 107.12066 42.167518 106.95517 C 42.945657 106.6786 43.577469 105.98901 43.722979 105.25812 L 43.723495 105.25812 C 43.94071 104.16716 43.189734 103.0697 42.293608 102.54201 C 40.164851 101.28855 37.670838 103.79914 34.821713 103.10528 C 29.870284 101.89943 29.582691 100.31239 29.046872 97.984146 C 28.802638 96.922903 29.638783 95.300509 30.155848 94.323387 C 31.03899 92.654471 32.319679 92.972389 31.463778 89.241527 C 30.914515 86.847276 31.113009 86.513591 32.031702 85.828298 C 32.748446 85.293652 33.02289 84.90259 34.681153 86.184349 C 35.690552 86.964566 37.112005 86.262192 37.687688 85.499636 C 38.227221 84.784948 37.992443 83.069027 37.339906 82.457445 C 36.969585 82.110366 36.457293 81.973357 35.912086 81.972203 z M 35.831471 82.710659 C 35.951492 82.710687 36.067486 82.726879 36.179253 82.754067 A 1.5 1.5 0 0 1 36.192689 82.757168 A 1.5 1.5 0 0 1 36.240231 82.770087 A 1.5 1.5 0 0 1 36.254184 82.773704 C 36.266489 82.777398 36.278705 82.781069 36.290874 82.785073 A 1.5 1.5 0 0 1 36.292424 82.78559 A 1.5 1.5 0 0 1 36.409213 82.828481 A 1.5 1.5 0 0 1 37.334738 84.213927 A 1.5 1.5 0 0 1 35.834571 85.714093 A 1.5 1.5 0 0 1 34.334921 84.213927 A 1.5 1.5 0 0 1 34.996379 82.970592 C 35.010961 82.960556 35.02639 82.951688 35.041338 82.94217 A 1.5 1.5 0 0 1 35.091464 82.911164 C 35.309455 82.784228 35.561799 82.710629 35.831471 82.710659 z M 29.491289 89.881281 L 29.493356 89.881281 A 1.5 1.5 0 0 1 30.993523 91.381448 A 1.5 1.5 0 0 1 29.802381 92.848542 C 29.789399 92.851343 29.776213 92.85332 29.763107 92.855776 A 1.5 1.5 0 0 1 29.681458 92.868696 C 29.659851 92.871496 29.638234 92.874078 29.616346 92.87593 A 1.5 1.5 0 0 1 29.558985 92.878514 C 29.536401 92.87955 29.514125 92.882126 29.491289 92.882131 C 29.464787 92.882134 29.438901 92.87938 29.412741 92.877997 A 1.5 1.5 0 0 1 29.373984 92.87593 C 29.346322 92.873744 29.319033 92.870842 29.291818 92.867145 A 1.5 1.5 0 0 1 29.241175 92.859394 C 29.216714 92.855196 29.192349 92.850832 29.168311 92.845441 A 1.5 1.5 0 0 1 29.115601 92.832005 C 29.078934 92.822335 29.042587 92.811823 29.007081 92.799449 A 1.5 1.5 0 0 1 28.921815 92.76741 C 28.914892 92.764504 28.908013 92.761633 28.901144 92.758625 A 1.5 1.5 0 0 1 28.783322 92.701264 A 1.5 1.5 0 0 1 27.993189 91.381448 A 1.5 1.5 0 0 1 28.91303 89.999103 A 1.5 1.5 0 0 1 29.047905 89.948977 C 29.048427 89.948813 29.048934 89.948624 29.049456 89.94846 A 1.5 1.5 0 0 1 29.051006 89.947944 A 1.5 1.5 0 0 1 29.177096 89.915387 C 29.190429 89.912484 29.20394 89.910175 29.217404 89.907636 A 1.5 1.5 0 0 1 29.315589 89.89265 C 29.329187 89.891029 29.342706 89.889246 29.356414 89.887999 A 1.5 1.5 0 0 1 29.486121 89.881798 C 29.487868 89.881792 29.489541 89.881281 29.491289 89.881281 z M 41.355164 103.21018 C 42.034476 103.21011 42.607753 103.67095 42.784534 104.30004 A 1.5 1.5 0 0 1 42.785568 104.30417 A 1.5 1.5 0 0 1 42.846029 104.72327 A 1.5 1.5 0 0 1 42.836728 104.81474 C 42.834738 104.84396 42.832082 104.87281 42.828459 104.90155 A 1.5 1.5 0 0 1 42.828459 104.90207 A 1.5 1.5 0 0 1 42.828459 104.90259 A 1.5 1.5 0 0 1 42.828459 104.9031 A 1.5 1.5 0 0 1 42.828459 104.90362 A 1.5 1.5 0 0 1 41.345863 106.22344 A 1.5 1.5 0 0 1 39.845696 104.72327 A 1.5 1.5 0 0 1 40.327837 103.62721 C 40.328721 103.62636 40.329534 103.62548 40.330421 103.62463 C 40.596946 103.36789 40.957834 103.21014 41.355164 103.21018 z " /></g></svg>
