<?xml version="1.0" encoding="UTF-8" standalone="no"?>
<!-- Created with Inkscape (http://www.inkscape.org/) -->

<svg
   width="6.0003896mm"
   height="4.9633651mm"
   viewBox="0 0 6.0003895 4.963365"
   version="1.1"
   id="svg5"
   xml:space="preserve"
   inkscape:version="1.2 (dc2aedaf03, 2022-05-15)"
   sodipodi:docname="brick-head-face-kai.svg"
   xmlns:inkscape="http://www.inkscape.org/namespaces/inkscape"
   xmlns:sodipodi="http://sodipodi.sourceforge.net/DTD/sodipodi-0.dtd"
   xmlns="http://www.w3.org/2000/svg"
   xmlns:svg="http://www.w3.org/2000/svg"><sodipodi:namedview
     id="namedview7"
     pagecolor="#ffffff"
     bordercolor="#111111"
     borderopacity="1"
     inkscape:showpageshadow="0"
     inkscape:pageopacity="0"
     inkscape:pagecheckerboard="1"
     inkscape:deskcolor="#d1d1d1"
     inkscape:document-units="mm"
     showgrid="false"
     inkscape:zoom="32"
     inkscape:cx="4.921875"
     inkscape:cy="13.375"
     inkscape:window-width="2560"
     inkscape:window-height="1377"
     inkscape:window-x="1912"
     inkscape:window-y="1072"
     inkscape:window-maximized="1"
     inkscape:current-layer="layer1" /><defs
     id="defs2" /><g
     inkscape:label="Layer 1"
     inkscape:groupmode="layer"
     id="layer1"
     transform="translate(-101.90775,-87.304325)"><ellipse
       style="opacity:1;fill:#000000;fill-opacity:1;stroke:none;stroke-width:0;stroke-linecap:round;stroke-dasharray:none"
       id="path506-7"
       cx="105.88194"
       cy="89.591698"
       rx="0.54556793"
       ry="0.5748601" /><path
       style="fill:#ffffff;fill-opacity:1;stroke:none;stroke-width:0;stroke-linecap:butt;stroke-linejoin:miter;stroke-dasharray:none;stroke-opacity:1"
       d="m 103.11769,91.370727 c -0.0203,-0.198012 1.49579,0.231626 3.19456,-0.506353 0.0805,-0.03498 0.63305,0.06888 0.21201,0.715057 -0.88349,1.35594 -3.31461,0.392033 -3.40657,-0.208704 z"
       id="path408"
       sodipodi:nodetypes="cssc" /><ellipse
       style="opacity:1;fill:#000000;fill-opacity:1;stroke:none;stroke-width:0;stroke-linecap:round;stroke-dasharray:none"
       id="path506"
       cx="103.35182"
       cy="89.624657"
       rx="0.54556793"
       ry="0.5748601" /><path
       style="fill:#7a1818;fill-opacity:1;stroke:none;stroke-width:0;stroke-linecap:butt;stroke-linejoin:miter;stroke-dasharray:none;stroke-opacity:1"
       d="m 101.9641,88.815454 c -0.26363,-0.146461 0.48333,-0.615137 0.48333,-0.615137 0.99576,-0.54594 1.73402,-0.45189 1.65501,0 -0.0373,0.213337 -1.2885,0.01159 -2.13834,0.615137 z"
       id="path552"
       sodipodi:nodetypes="ccsc" /><path
       style="fill:#7a1818;fill-opacity:1;stroke:none;stroke-width:0;stroke-linecap:butt;stroke-linejoin:miter;stroke-dasharray:none;stroke-opacity:1"
       d="m 106.93248,89.193559 c 0.27156,-0.131175 -0.44742,-0.641725 -0.44742,-0.641725 -0.96297,-0.601892 -1.7054,-0.550139 -1.65231,-0.09448 0.0251,0.215118 1.28573,0.08513 2.09973,0.7362 z"
       id="path552-4"
       sodipodi:nodetypes="ccsc" /><path
       id="rect674"
       style="opacity:1;fill:#ffffff;stroke-width:0;stroke-linecap:round"
       transform="matrix(0.70317821,0.71101365,-0.67224274,0.7403308,0,0)"
       d="m 137.90938,-14.496604 h 1.66091 c 0.0681,0 0.12289,0.117564 0.12289,0.263596 0,0.146033 -0.0548,0.263597 -0.12289,0.263597 h -1.66091 c -0.0681,0 -0.1229,-0.117564 -0.1229,-0.263597 0,-0.146032 0.0548,-0.263596 0.1229,-0.263596 z" /></g></svg>
